<?xml version="1.0" encoding="UTF-8"?>
<svg xmlns="http://www.w3.org/2000/svg" xmlns:xlink="http://www.w3.org/1999/xlink" viewBox="0 0 81 81" width="81px" height="81px">
<defs>
<linearGradient id="linear0" gradientUnits="userSpaceOnUse" x1="58.440578" y1="3.94525" x2="82.499077" y2="70.039833" gradientTransform="matrix(0.47093,0,0,0.47093,0,0)">
<stop offset="0" style="stop-color:rgb(95.686275%,30.980393%,35.294119%);stop-opacity:1;"/>
<stop offset="0.443" style="stop-color:rgb(93.333334%,23.921569%,29.019609%);stop-opacity:1;"/>
<stop offset="1" style="stop-color:rgb(89.803922%,12.54902%,18.82353%);stop-opacity:1;"/>
</linearGradient>
<linearGradient id="linear1" gradientUnits="userSpaceOnUse" x1="56.043331" y1="52.445671" x2="79.958504" y2="118.14608" gradientTransform="matrix(0.47093,0,0,0.47093,0,0)">
<stop offset="0" style="stop-color:rgb(68.235296%,29.803923%,83.529413%);stop-opacity:1;"/>
<stop offset="1" style="stop-color:rgb(57.647061%,19.215687%,74.901962%);stop-opacity:1;"/>
</linearGradient>
<linearGradient id="linear2" gradientUnits="userSpaceOnUse" x1="53.069172" y1="94.445923" x2="78.191917" y2="163.460922" gradientTransform="matrix(0.47093,0,0,0.47093,0,0)">
<stop offset="0" style="stop-color:rgb(20%,76.862746%,50.588238%);stop-opacity:1;"/>
<stop offset="1" style="stop-color:rgb(12.941177%,63.921571%,40.000001%);stop-opacity:1;"/>
</linearGradient>
<linearGradient id="linear3" gradientUnits="userSpaceOnUse" x1="98.5345" y1="1.83467" x2="122.25975" y2="67.015503" gradientTransform="matrix(0.47093,0,0,0.47093,0,0)">
<stop offset="0" style="stop-color:rgb(94.117647%,61.176473%,63.529414%);stop-opacity:1;"/>
<stop offset="1" style="stop-color:rgb(92.156863%,40.392157%,45.09804%);stop-opacity:1;"/>
</linearGradient>
<linearGradient id="linear4" gradientUnits="userSpaceOnUse" x1="102.89183" y1="53.64967" x2="124.904251" y2="114.129173" gradientTransform="matrix(1.687498,0,0,1.687498,0,0)">
<stop offset="0" style="stop-color:rgb(19.607843%,74.117649%,93.725491%);stop-opacity:1;"/>
<stop offset="1" style="stop-color:rgb(11.764706%,63.529414%,89.411765%);stop-opacity:1;"/>
</linearGradient>
</defs>
<g id="surface21782047">
<rect x="0" y="0" width="81" height="81" style="fill:rgb(100%,100%,100%);fill-opacity:1;stroke:none;"/>
<path style=" stroke:none;fill-rule:nonzero;fill:url(#linear0);" d="M 43.875 28.6875 L 30.375 28.6875 C 23.851562 28.6875 18.5625 23.398438 18.5625 16.875 C 18.5625 10.351562 23.851562 5.0625 30.375 5.0625 L 43.875 5.0625 Z M 43.875 28.6875 "/>
<path style=" stroke:none;fill-rule:nonzero;fill:url(#linear1);" d="M 42.1875 52.3125 L 30.375 52.3125 C 23.851562 52.3125 18.5625 47.023438 18.5625 40.5 C 18.5625 33.976562 23.851562 28.6875 30.375 28.6875 L 42.1875 28.6875 Z M 42.1875 52.3125 "/>
<path style=" stroke:none;fill-rule:nonzero;fill:url(#linear2);" d="M 30.375 75.9375 C 23.851562 75.9375 18.5625 70.648438 18.5625 64.125 C 18.5625 57.601562 23.851562 52.3125 30.375 52.3125 L 42.1875 52.3125 L 42.1875 64.125 C 42.1875 70.648438 36.898438 75.9375 30.375 75.9375 Z M 30.375 75.9375 "/>
<path style=" stroke:none;fill-rule:nonzero;fill:url(#linear3);" d="M 54 28.6875 L 42.1875 28.6875 L 42.1875 5.0625 L 54 5.0625 C 60.523438 5.0625 65.8125 10.351562 65.8125 16.875 C 65.8125 23.398438 60.523438 28.6875 54 28.6875 Z M 54 28.6875 "/>
<path style=" stroke:none;fill-rule:nonzero;fill:url(#linear4);" d="M 65.8125 40.5 C 65.8125 47.023438 60.523438 52.3125 54 52.3125 C 47.476562 52.3125 42.1875 47.023438 42.1875 40.5 C 42.1875 33.976562 47.476562 28.6875 54 28.6875 C 60.523438 28.6875 65.8125 33.976562 65.8125 40.5 Z M 65.8125 40.5 "/>
</g>
</svg>
