<?xml version="1.0" encoding="UTF-8"?>
<svg xmlns="http://www.w3.org/2000/svg" xmlns:xlink="http://www.w3.org/1999/xlink" viewBox="0 0 81 81" width="81px" height="81px">
<g id="surface21784937">
<rect x="0" y="0" width="81" height="81" style="fill:rgb(100%,100%,100%);fill-opacity:1;stroke:none;"/>
<path style=" stroke:none;fill-rule:nonzero;fill:rgb(40.392157%,22.745098%,71.764708%);fill-opacity:1;" d="M 70.875 62.4375 C 70.875 67.097656 67.097656 70.875 62.4375 70.875 L 18.5625 70.875 C 13.902344 70.875 10.125 67.097656 10.125 62.4375 L 10.125 18.5625 C 10.125 13.902344 13.902344 10.125 18.5625 10.125 L 62.4375 10.125 C 67.097656 10.125 70.875 13.902344 70.875 18.5625 Z M 70.875 62.4375 "/>
<path style=" stroke:none;fill-rule:nonzero;fill:rgb(100%,100%,100%);fill-opacity:1;" d="M 55.738281 43.199219 C 54.640625 41.679688 53.054688 40.636719 51.011719 40.078125 C 51.011719 40.078125 52.734375 39.453125 54.285156 37.125 C 55.214844 35.640625 55.6875 33.851562 55.6875 31.757812 C 55.6875 28.128906 54.371094 25.347656 51.738281 23.4375 C 49.105469 21.53125 46.136719 20.25 41.089844 20.25 L 25.3125 20.25 L 25.3125 60.75 L 42.914062 60.75 C 47.6875 60.714844 51.28125 59.6875 53.730469 57.710938 C 56.160156 55.703125 57.375 52.734375 57.375 48.769531 C 57.375 46.574219 56.835938 44.71875 55.738281 43.199219 Z M 35.4375 27 C 35.4375 27 42.472656 27 42.609375 27 C 45.175781 27 47.25 29.074219 47.25 31.640625 C 47.25 34.207031 45.175781 36.28125 42.609375 36.28125 C 42.472656 36.28125 35.4375 36.28125 35.4375 36.28125 Z M 43.875 54 L 35.4375 54 L 35.4375 43.875 L 43.875 43.875 C 46.675781 43.875 48.9375 46.136719 48.9375 48.9375 C 48.9375 51.738281 46.675781 54 43.875 54 Z M 43.875 54 "/>
</g>
</svg>
